<svg width="24" height="24" viewBox="0 0 24 24" fill="none" xmlns="http://www.w3.org/2000/svg">
<path d="M17.74 9.32C15.95 7.81 14.14 7.44 12.33 8.23C12.19 7.29 11.87 6.5 11.38 5.82C11.35 5.77 11.31 5.73 11.28 5.68C12.13 4.19 13.48 3.68 15.62 4.01C15.02 5.42 14.13 6.3 12.92 6.69C12.72 6.75 12.61 6.96 12.66 7.16C12.71 7.39 12.95 7.52 13.17 7.45C14.63 6.98 15.72 5.89 16.4 4.23C16.48 4.03 16.47 3.8 16.36 3.61C16.25 3.42 16.07 3.29 15.86 3.25C14.63 3.04 13.62 3.09 12.78 3.4C11.94 3.7 11.26 4.27 10.74 5.08C10.44 4.8 10.09 4.54 9.70003 4.3C9.51003 4.18 9.25003 4.25 9.14003 4.45C9.04003 4.64 9.10003 4.87 9.28003 4.98C9.92003 5.37 10.39 5.79 10.75 6.3C11.13 6.83 11.39 7.45 11.53 8.18C9.78003 7.48 8.01003 7.87 6.28003 9.34C6.13003 9.47 6.03003 9.66 6.03003 9.86C6.03003 10.06 6.10003 10.26 6.25003 10.4C7.47003 11.56 8.18003 12.85 8.37003 14.24C8.57003 15.68 8.23003 17.27 7.35003 18.99C7.21003 19.26 7.26003 19.59 7.47003 19.81C8.14003 20.51 8.90003 20.88 9.73003 20.9C9.76003 20.9 9.78003 20.9 9.81003 20.9C10.5 20.9 11.24 20.66 12.02 20.19C12.8 20.66 13.54 20.9 14.23 20.9C14.26 20.9 14.28 20.9 14.31 20.9C15.14 20.88 15.9 20.51 16.57 19.81C16.78 19.59 16.83 19.26 16.69 18.99C15.81 17.27 15.47 15.67 15.67 14.24C15.86 12.85 16.58 11.56 17.79 10.4C17.94 10.26 18.02 10.07 18.01 9.86C18.01 9.66 17.91 9.47 17.76 9.34L17.74 9.32ZM12.38 9.07C13.97 8.26 15.54 8.52 17.15 9.86C14.49 12.45 14.08 15.61 15.93 19.28C14.93 20.31 13.77 20.36 12.31 19.43C12.23 19.38 12.15 19.31 12.09 19.24C12.06 19.2 12 19.2 11.97 19.24C11.92 19.3 11.86 19.35 11.79 19.38C10.28 20.37 9.10003 20.34 8.07003 19.29C9.92003 15.62 9.51003 12.46 6.85003 9.87C8.47003 8.53 10.03 8.27 11.63 9.08L12.06 9.32C12.16 9.22 12.27 9.14 12.39 9.08L12.38 9.07Z" fill="#14A34A"/>
</svg>
