<svg width="24" height="24" viewBox="0 0 24 24" fill="none" xmlns="http://www.w3.org/2000/svg">
<path d="M9.15992 9.5H3.16992V6.59C3.16992 6.31 3.39992 6.09 3.66992 6.09H9.15992V9.5ZM3.77992 8.89H8.55992V6.69H3.77992V8.89Z" fill="#E85A11"/>
<path d="M14.4301 9.5H8.56006V6.09H13.9201C14.2001 6.09 14.4201 6.32 14.4201 6.59V9.5H14.4301ZM9.16006 8.89H13.8201V6.69H9.16006V8.89Z" fill="#E85A11"/>
<path d="M7.05006 12.3H1.06006V9.39C1.06006 9.11 1.29006 8.89 1.56006 8.89H7.05006V12.3ZM1.67006 11.7H6.45006V9.5H1.67006V11.7Z" fill="#E85A11"/>
<path d="M12.32 12.3H6.44995V8.89H11.81C12.09 8.89 12.31 9.12 12.31 9.39V12.3H12.32ZM7.04995 11.7H11.71V9.5H7.04995V11.7Z" fill="#E85A11"/>
<path d="M17.58 12.3H11.71V8.89H17.07C17.35 8.89 17.57 9.12 17.57 9.39V12.3H17.58ZM12.32 11.7H16.98V9.5H12.32V11.7Z" fill="#E85A11"/>
<path d="M22.29 17.91H16.95V14.5H22.94V17.26C22.94 17.62 22.65 17.91 22.29 17.91ZM17.5499 17.31H22.29C22.29 17.31 22.33 17.29 22.33 17.27V15.11H17.5499V17.31Z" fill="#E85A11"/>
<path d="M17.5499 17.91H12.1899C11.9099 17.91 11.6899 17.68 11.6899 17.41V14.5H17.5599V17.91H17.5499ZM12.2899 17.31H16.9499V15.11H12.2899V17.31Z" fill="#E85A11"/>
<path d="M12.2899 17.91H6.92993C6.64993 17.91 6.42993 17.68 6.42993 17.41V14.5H12.2999V17.91H12.2899ZM7.01993 17.31H11.6799V15.11H7.01993V17.31Z" fill="#E85A11"/>
<path d="M6.52012 17.91H1.77012C1.41012 17.91 1.12012 17.62 1.12012 17.26V14.5H7.02012V17.41C7.02012 17.69 6.79012 17.91 6.52012 17.91ZM1.73012 15.11V17.27C1.73012 17.27 1.75012 17.31 1.77012 17.31H6.42012V15.11H1.73012Z" fill="#E85A11"/>
<path d="M4.86006 15.11H1.06006V12.2C1.06006 11.92 1.29006 11.7 1.56006 11.7H4.86006V15.11ZM1.67006 14.5H4.26006V12.3H1.67006V14.5Z" fill="#E85A11"/>
<path d="M10.2 15.11H4.26001V11.7H9.70001C9.98001 11.7 10.2 11.93 10.2 12.2V15.11ZM4.86001 14.5H9.59001V12.3H4.86001V14.5Z" fill="#E85A11"/>
<path d="M15.4701 15.11H9.59009V11.7H14.9701C15.2501 11.7 15.4701 11.93 15.4701 12.2V15.11ZM10.2001 14.5H14.8701V12.3H10.2001V14.5Z" fill="#E85A11"/>
<path d="M20.8401 15.11H14.8701V12.2C14.8701 11.92 15.1001 11.7 15.3701 11.7H20.8401V15.11ZM15.4701 14.5H20.2301V12.3H15.4701V14.5Z" fill="#E85A11"/>
<path d="M22.94 15.11H20.24V11.7H22.94V15.11ZM20.84 14.5H22.33V12.3H20.84V14.5Z" fill="#E85A11"/>
<path d="M22.9401 12.3H19.1001V9.58C19.1001 9.33 19.3001 9.13 19.5501 9.13H22.5001C22.7501 9.13 22.9501 9.33 22.9501 9.58V12.3H22.9401ZM19.7001 11.7H22.3301V9.74H19.7001V11.7Z" fill="#E85A11"/>
</svg>
