<svg width="24" height="24" viewBox="0 0 24 24" fill="none" xmlns="http://www.w3.org/2000/svg">
<path d="M22.1801 17.82C22.1801 17.82 22.1801 17.79 22.1801 17.77C22.1801 17.77 22.1801 17.76 22.1801 17.75C22.1801 17.74 22.1801 17.72 22.1601 17.7V17.68C22.1601 17.68 22.1401 17.65 22.1301 17.63C22.1301 17.63 22.1301 17.63 22.1301 17.62C22.1201 17.6 22.1001 17.58 22.0901 17.57C22.0901 17.57 22.0901 17.57 22.0801 17.56C22.0701 17.55 22.0501 17.54 22.0401 17.53C22.0401 17.53 22.0301 17.53 22.0201 17.52L21.9901 17.57L22.0101 17.52C22.0101 17.52 22.0001 17.52 21.9901 17.51L19.5501 16.3V5.27999C19.5501 5.06999 19.3801 4.89999 19.1701 4.89999H4.77009C4.56009 4.89999 4.39009 5.06999 4.39009 5.27999V16.29L2.02009 17.5C2.02009 17.5 2.01009 17.5 2.00009 17.5L2.03009 17.54L1.99009 17.5C1.99009 17.5 1.98009 17.5 1.97009 17.51C1.96009 17.51 1.95009 17.53 1.93009 17.54C1.93009 17.54 1.93009 17.54 1.92009 17.54C1.90009 17.56 1.89009 17.57 1.88009 17.59C1.87009 17.61 1.86009 17.62 1.85009 17.64V17.66C1.85009 17.67 1.84009 17.69 1.84009 17.71V17.73C1.84009 17.73 1.84009 17.76 1.84009 17.78V17.79V18.68C1.84009 18.89 2.01009 19.06 2.22009 19.06H21.8201C22.0301 19.06 22.2001 18.89 22.2001 18.68V17.79V17.78L22.1801 17.82ZM5.15009 16.14V5.65999H18.7601V16.14H5.15009ZM3.78009 17.45L4.86009 16.9H19.0501L20.1701 17.45H3.78009ZM21.4201 18.21V18.34H2.58009V18.21H21.4201Z" fill="#4C5563"/>
<path d="M17.4201 6.25H6.50012C6.29012 6.25 6.12012 6.42 6.12012 6.63V13.99C6.12012 14.2 6.29012 14.37 6.50012 14.37H17.4201C17.6301 14.37 17.8001 14.2 17.8001 13.99V6.63C17.8001 6.42 17.6301 6.25 17.4201 6.25ZM17.0401 7.01V13.61H6.88012V7.01H17.0401Z" fill="#4C5563"/>
<path d="M12.0901 14.45C11.6701 14.45 11.3301 14.79 11.3301 15.21C11.3301 15.63 11.6701 15.97 12.0901 15.97C12.5101 15.97 12.8501 15.63 12.8501 15.21C12.8501 14.79 12.5101 14.45 12.0901 14.45ZM12.3501 15.21C12.3501 15.35 12.2301 15.47 12.0901 15.47C11.9501 15.47 11.8301 15.35 11.8301 15.21C11.8301 15.07 11.9501 14.95 12.0901 14.95C12.2301 14.95 12.3501 15.07 12.3501 15.21Z" fill="#4C5563"/>
</svg>
