<svg width="24" height="25" viewBox="0 0 24 25" fill="none" xmlns="http://www.w3.org/2000/svg">
<mask id="path-1-inside-1_3167_7950" fill="white">
<path d="M6.82844 21.1314H3.11844C2.71844 21.1314 2.39844 20.8014 2.39844 20.4014V16.6914C2.39844 16.2914 2.71844 15.9614 3.11844 15.9614H6.82844C7.22844 15.9614 7.54844 16.2914 7.54844 16.6914V20.4014C7.54844 20.8014 7.22844 21.1314 6.82844 21.1314ZM3.31844 20.2114H6.62844V16.9014H3.31844V20.2114Z"/>
</mask>
<path d="M6.82844 21.1314H3.11844C2.71844 21.1314 2.39844 20.8014 2.39844 20.4014V16.6914C2.39844 16.2914 2.71844 15.9614 3.11844 15.9614H6.82844C7.22844 15.9614 7.54844 16.2914 7.54844 16.6914V20.4014C7.54844 20.8014 7.22844 21.1314 6.82844 21.1314ZM3.31844 20.2114H6.62844V16.9014H3.31844V20.2114Z" fill="#3B60AA"/>
<path d="M3.31844 20.2114H2.31844V21.2114H3.31844V20.2114ZM6.62844 20.2114V21.2114H7.62844V20.2114H6.62844ZM6.62844 16.9014H7.62844V15.9014H6.62844V16.9014ZM3.31844 16.9014V15.9014H2.31844V16.9014H3.31844ZM6.82844 21.1314V20.1314H3.11844V21.1314V22.1314H6.82844V21.1314ZM3.11844 21.1314V20.1314C3.28859 20.1314 3.39844 20.2672 3.39844 20.4014H2.39844H1.39844C1.39844 21.3357 2.14828 22.1314 3.11844 22.1314V21.1314ZM2.39844 20.4014H3.39844V16.6914H2.39844H1.39844V20.4014H2.39844ZM2.39844 16.6914H3.39844C3.39844 16.8257 3.28859 16.9614 3.11844 16.9614V15.9614V14.9614C2.14828 14.9614 1.39844 15.7572 1.39844 16.6914H2.39844ZM3.11844 15.9614V16.9614H6.82844V15.9614V14.9614H3.11844V15.9614ZM6.82844 15.9614V16.9614C6.65828 16.9614 6.54844 16.8257 6.54844 16.6914H7.54844H8.54844C8.54844 15.7572 7.79859 14.9614 6.82844 14.9614V15.9614ZM7.54844 16.6914H6.54844V20.4014H7.54844H8.54844V16.6914H7.54844ZM7.54844 20.4014H6.54844C6.54844 20.2672 6.65828 20.1314 6.82844 20.1314V21.1314V22.1314C7.79859 22.1314 8.54844 21.3357 8.54844 20.4014H7.54844ZM3.31844 20.2114V21.2114H6.62844V20.2114V19.2114H3.31844V20.2114ZM6.62844 20.2114H7.62844V16.9014H6.62844H5.62844V20.2114H6.62844ZM6.62844 16.9014V15.9014H3.31844V16.9014V17.9014H6.62844V16.9014ZM3.31844 16.9014H2.31844V20.2114H3.31844H4.31844V16.9014H3.31844Z" fill="#2563EB" mask="url(#path-1-inside-1_3167_7950)"/>
<path d="M13.8502 21.1314H10.1402C9.74016 21.1314 9.41016 20.8014 9.41016 20.4014V16.6914C9.41016 16.2914 9.74016 15.9614 10.1402 15.9614H13.8502C14.2502 15.9614 14.5802 16.2914 14.5802 16.6914V20.4014C14.5802 20.8014 14.2502 21.1314 13.8502 21.1314ZM10.3502 20.2114H13.6602V16.9014H10.3502V20.2114Z" fill="#2563EB"/>
<path d="M13.8502 8.95125H10.1402C9.74016 8.95125 9.41016 8.62125 9.41016 8.22125V4.51125C9.41016 4.11125 9.74016 3.78125 10.1402 3.78125H13.8502C14.2502 3.78125 14.5802 4.11125 14.5802 4.51125V8.22125C14.5802 8.62125 14.2502 8.95125 13.8502 8.95125ZM10.3502 8.02125H13.6602V4.71125H10.3502V8.02125Z" fill="#2563EB"/>
<path d="M20.8792 21.1314H17.1692C16.7692 21.1314 16.4492 20.8014 16.4492 20.4014V16.6914C16.4492 16.2914 16.7692 15.9614 17.1692 15.9614H20.8792C21.2792 15.9614 21.5992 16.2914 21.5992 16.6914V20.4014C21.5992 20.8014 21.2792 21.1314 20.8792 21.1314ZM17.3792 20.2114H20.6892V16.9014H17.3792V20.2114Z" fill="#2563EB"/>
<path d="M19.49 16.4412H18.56V12.9312H5.43V16.4412H4.5V12.7212C4.5 12.3212 4.83 11.9912 5.23 11.9912H18.76C19.16 11.9912 19.49 12.3212 19.49 12.7212V16.4412Z" fill="#2563EB"/>
<path d="M12.4691 8.48145H11.5391V16.4314H12.4691V8.48145Z" fill="#2563EB"/>
</svg>
