<svg width="24" height="24" viewBox="0 0 24 24" fill="none" xmlns="http://www.w3.org/2000/svg">
<path d="M22.57 10.69H18.02V13.92C18.28 13.97 18.52 14.09 18.71 14.26C18.8 14.34 18.88 14.43 18.95 14.52H22.52L22.69 14.29V10.95L22.56 10.68L22.57 10.69ZM18.71 13.84V11.38H22V13.84H18.71ZM18.01 14.27V14.53H18.49C18.35 14.41 18.19 14.32 18.01 14.27Z" fill="#684897"/>
<path d="M18.01 13.84V13.92C18.27 13.97 18.51 14.09 18.7 14.26C18.79 14.34 18.87 14.43 18.94 14.52H21.65L20.99 15.41H19.23C19.23 15.66 19.17 15.9 19.06 16.1H21.33L22.51 14.52L22.68 14.29V13.83H18L18.01 13.84ZM18.71 15.42V14.79L18.49 14.54C18.35 14.42 18.19 14.33 18.01 14.28V15.04C18.12 15.13 18.19 15.27 18.19 15.42C18.19 15.57 18.12 15.71 18.01 15.8V16.11H18.66C18.66 16.11 18.69 16.07 18.7 16.05C18.82 15.87 18.88 15.65 18.88 15.42H18.7H18.71Z" fill="#684897"/>
<path d="M22.57 10.69L21.32 8H18.01V11.38H22.69V10.96L22.56 10.69H22.57ZM18.71 10.69V8.69H20.88L21.81 10.69H18.71Z" fill="#684897"/>
<path d="M16.49 8.00001V14.49C16.77 14.13 17.21 13.89 17.7 13.89C17.81 13.89 17.91 13.9 18.01 13.92C18.27 13.97 18.51 14.09 18.7 14.26V7.99001H16.49V8.00001ZM18.01 13.84H17.18V8.69001H18.01V13.84ZM18.01 14.27C17.91 14.24 17.81 14.23 17.7 14.23C17.4 14.23 17.12 14.34 16.91 14.53H18.48C18.34 14.41 18.18 14.32 18 14.27H18.01Z" fill="#684897"/>
<path d="M18.4901 14.53C18.3501 14.41 18.1901 14.32 18.0101 14.27C17.9101 14.24 17.8101 14.23 17.7001 14.23C17.4001 14.23 17.1201 14.34 16.9101 14.53H18.0101V15.03C18.1201 15.12 18.1901 15.26 18.1901 15.41C18.1901 15.56 18.1201 15.7 18.0101 15.79C17.9301 15.86 17.8201 15.9 17.7001 15.9C17.4301 15.9 17.2101 15.68 17.2101 15.41H16.5201C16.5201 15.67 16.6001 15.91 16.7401 16.1H18.6701C18.6701 16.1 18.7001 16.06 18.7101 16.04V14.77L18.4901 14.52V14.53ZM7.19006 15.42C7.19006 15.69 6.97006 15.91 6.70006 15.91C6.43006 15.91 6.21006 15.69 6.21006 15.42H5.52006C5.52006 15.68 5.60006 15.92 5.74006 16.11H7.67006C7.81006 15.92 7.89006 15.68 7.89006 15.42H7.20006H7.19006ZM16.1801 15.42H8.23006C8.23006 15.67 8.17006 15.91 8.06006 16.11H16.3401C16.2301 15.9 16.1701 15.67 16.1701 15.42H16.1801ZM1.31006 13.84V14.08L1.69006 14.53L3.04006 16.11H5.33006C5.22006 15.9 5.16006 15.67 5.16006 15.42H3.35006L2.59006 14.53H5.44006C5.72006 14.14 6.17006 13.89 6.68006 13.89C7.19006 13.89 7.65006 14.14 7.92006 14.53H16.4401C16.4401 14.53 16.4601 14.5 16.4701 14.49C16.7501 14.13 17.1901 13.89 17.6801 13.89C17.7901 13.89 17.8901 13.9 17.9901 13.92C18.2501 13.97 18.4901 14.09 18.6801 14.26V13.83H1.31006V13.84ZM5.91006 14.53H7.48006C7.27006 14.34 7.00006 14.23 6.69006 14.23C6.38006 14.23 6.11006 14.34 5.90006 14.53H5.91006Z" fill="#684897"/>
<path d="M8.72997 14.53C8.61997 14.27 8.44997 14.03 8.24997 13.84C7.84997 13.44 7.29997 13.2 6.68997 13.2C6.07997 13.2 5.52997 13.44 5.12997 13.84C4.92997 14.04 4.76997 14.27 4.64997 14.53C4.52997 14.8 4.46997 15.1 4.46997 15.42C4.46997 15.66 4.50997 15.9 4.57997 16.11C4.86997 17 5.70997 17.64 6.68997 17.64C7.66997 17.64 8.50997 17 8.79997 16.11C8.86997 15.89 8.90997 15.66 8.90997 15.42C8.90997 15.1 8.83997 14.8 8.72997 14.53ZM6.69997 16.95C6.10997 16.95 5.58997 16.61 5.33997 16.11C5.22997 15.9 5.16997 15.67 5.16997 15.42C5.16997 15.09 5.27997 14.78 5.44997 14.53C5.72997 14.14 6.17997 13.89 6.68997 13.89C7.19997 13.89 7.65997 14.14 7.92997 14.53C8.10997 14.78 8.20997 15.09 8.20997 15.42C8.20997 15.67 8.14997 15.91 8.03997 16.11C7.78997 16.61 7.26997 16.95 6.67997 16.95H6.69997Z" fill="#684897"/>
<path d="M7.48 14.53C7.27 14.34 7 14.23 6.69 14.23C6.38 14.23 6.11 14.34 5.9 14.53C5.66 14.75 5.5 15.06 5.5 15.42C5.5 15.68 5.58 15.92 5.72 16.11C5.94 16.41 6.29 16.6 6.68 16.6C7.07 16.6 7.43 16.4 7.64 16.11C7.78 15.92 7.86 15.68 7.86 15.42C7.86 15.07 7.7 14.75 7.46 14.53H7.48ZM6.7 14.93C6.97 14.93 7.19 15.15 7.19 15.42C7.19 15.69 6.97 15.91 6.7 15.91C6.43 15.91 6.21 15.69 6.21 15.42C6.21 15.15 6.43 14.93 6.7 14.93Z" fill="#684897"/>
<path d="M19.74 14.53C19.63 14.27 19.46 14.03 19.26 13.84C19.1 13.68 18.91 13.54 18.7 13.44C18.49 13.33 18.25 13.26 18.01 13.22C17.91 13.21 17.81 13.2 17.7 13.2C17.52 13.2 17.35 13.22 17.18 13.26C16.93 13.32 16.7 13.42 16.49 13.56C16.36 13.64 16.25 13.74 16.14 13.84C15.94 14.04 15.78 14.27 15.66 14.53C15.54 14.8 15.48 15.1 15.48 15.42C15.48 15.66 15.52 15.9 15.59 16.11C15.88 17 16.72 17.64 17.7 17.64C18.68 17.64 19.52 17 19.81 16.11C19.88 15.89 19.92 15.66 19.92 15.42C19.92 15.1 19.85 14.8 19.74 14.53ZM17.7 16.95C17.11 16.95 16.59 16.61 16.34 16.11C16.23 15.9 16.17 15.67 16.17 15.42C16.17 15.09 16.28 14.78 16.45 14.53C16.46 14.52 16.47 14.5 16.48 14.49C16.76 14.13 17.2 13.89 17.69 13.89C17.8 13.89 17.9 13.9 18 13.92C18.26 13.97 18.5 14.09 18.69 14.26C18.78 14.34 18.86 14.43 18.93 14.52C19.11 14.77 19.21 15.08 19.21 15.41C19.21 15.66 19.15 15.9 19.04 16.1C18.79 16.6 18.27 16.94 17.68 16.94L17.7 16.95Z" fill="#684897"/>
<path d="M18.71 14.79C18.65 14.7 18.58 14.61 18.49 14.54C18.35 14.42 18.19 14.33 18.01 14.28C17.91 14.25 17.81 14.24 17.7 14.24C17.4 14.24 17.12 14.35 16.91 14.54C16.67 14.76 16.51 15.07 16.51 15.43C16.51 15.69 16.59 15.93 16.73 16.12C16.95 16.42 17.3 16.61 17.69 16.61C18.08 16.61 18.44 16.41 18.65 16.12C18.66 16.1 18.68 16.08 18.69 16.06C18.81 15.88 18.87 15.66 18.87 15.43C18.87 15.2 18.8 14.98 18.69 14.8L18.71 14.79ZM17.7 14.93C17.82 14.93 17.92 14.97 18.01 15.04C18.12 15.13 18.19 15.27 18.19 15.42C18.19 15.57 18.12 15.71 18.01 15.8C17.93 15.87 17.82 15.91 17.7 15.91C17.43 15.91 17.21 15.69 17.21 15.42C17.21 15.15 17.43 14.93 17.7 14.93Z" fill="#684897"/>
<path d="M8.44006 7.08L7.08006 6.36H5.36006V7.99L2.08006 12.08H1.31006V14.09L1.69006 14.54H5.45006C5.73006 14.15 6.18006 13.9 6.69006 13.9C7.20006 13.9 7.66006 14.15 7.93006 14.54H15.6601V7.09H8.43006L8.44006 7.08ZM6.05006 8.23V7.05H6.90006L7.82006 7.54L4.36006 12.08H2.95006L6.04006 8.24L6.05006 8.23ZM2.00006 13.84V12.77H4.71006L8.52006 7.77H14.9701V13.84H2.00006ZM5.91006 14.53H7.48006C7.27006 14.34 7.00006 14.23 6.69006 14.23C6.38006 14.23 6.11006 14.34 5.90006 14.53H5.91006Z" fill="#684897"/>
<path d="M8.77558 9.60494L7.25343 11.4475C7.13032 11.5966 7.1496 11.8157 7.2965 11.9371C7.4434 12.0584 7.66228 12.036 7.78539 11.887L9.30755 10.0444C9.43066 9.89536 9.41137 9.67618 9.26448 9.55483C9.11758 9.43348 8.89869 9.45591 8.77558 9.60494Z" fill="#684897"/>
<path d="M10.8149 9.61218L9.29273 11.4548C9.16962 11.6038 9.18891 11.823 9.3358 11.9443C9.4827 12.0657 9.70159 12.0433 9.8247 11.8942L11.3469 10.0516C11.47 9.90261 11.4507 9.68343 11.3038 9.56207C11.1569 9.44072 10.938 9.46316 10.8149 9.61218Z" fill="#684897"/>
<path d="M12.8251 9.61255L11.303 11.4551C11.1799 11.6042 11.1992 11.8234 11.3461 11.9447C11.493 12.0661 11.7118 12.0436 11.8349 11.8946L13.3571 10.052C13.4802 9.90298 13.4609 9.68379 13.314 9.56244C13.1671 9.44109 12.9483 9.46352 12.8251 9.61255Z" fill="#684897"/>
<path d="M19.92 11.87H19.19C19.0574 11.87 18.95 11.9752 18.95 12.105C18.95 12.2348 19.0574 12.34 19.19 12.34H19.92C20.0525 12.34 20.16 12.2348 20.16 12.105C20.16 11.9752 20.0525 11.87 19.92 11.87Z" fill="#684897"/>
</svg>
